#!OML:ASF H:\ManfredETheater\Project 1\Capture day 1\Session 1\subject.ASF
:FULLY-SPECIFIED
:DEGREES
136
root 0.686035 16.9458 31.7253 -170.381 -5.00832 176.978
lowerback 7.99325 -1.13283 -4.12354
upperback -1.83252 -1.84454 1.6567
thorax -6.23067 -0.721829 4.30562
lowerneck -18.1292 -0.436135 -1.88087
upperneck 21.5292 -0.226175 -1.21423
head 9.83628 -0.585149 -0.173913
rclavicle 3.57812e-014 -3.18055e-014
rhumerus -35.3269 -9.83407 -78.6398
rradius 32.9529
rwrist 0.120262
rhand -20.1852 -12.5043
rfingers 7.12502
rthumb 6.16099 -42.3947
lclavicle 3.57812e-014 -3.18055e-014
lhumerus -35.6609 2.18223 86.3867
lradius 35.9677
lwrist -11.6563
lhand -8.66373 10.281
lfingers 7.12502
lthumb 17.2701 39.5337
rfemur -37.7593 -5.13654 15.3611
rtibia 44.8682
rfoot -12.6708 -3.30174
rtoes 11.5342
lfemur -12.6953 -4.9381 -26.3565
ltibia 33.0779
lfoot -26.581 0.654082
ltoes 9.36993
137
root 0.692414 16.9376 31.6877 -170.161 -5.02482 176.946
lowerback 8.11364 -1.14327 -4.08511
upperback -1.78255 -1.85796 1.6674
thorax -6.24578 -0.730117 4.29994
lowerneck -18.0929 -0.460791 -1.88268
upperneck 21.3019 -0.246486 -1.21424
head 9.74901 -0.585273 -0.17384
rclavicle -1.35174e-014 7.95139e-015
rhumerus -35.2955 -9.7023 -78.7252
rradius 33.153
rwrist -0.0125706
rhand -20.1749 -12.5455
rfingers 7.12502
rthumb 6.171 -42.4356
lclavicle -1.35174e-014 7.95139e-015
lhumerus -35.627 2.02234 86.4955
lradius 36.1421
lwrist -11.5422
lhand -8.67555 10.3107
lfingers 7.12502
lthumb 17.2587 39.5644
rfemur -38.0215 -5.20071 15.3869
rtibia 45.1692
rfoot -12.9136 -3.28834
rtoes 11.4082
lfemur -12.8234 -5.00391 -26.3545
ltibia 33.1354
lfoot -26.7217 0.764674
ltoes 9.23487
138
root 0.69893 16.9291 31.649 -169.939 -5.0432 176.919
lowerback 8.24345 -1.15244 -4.03819
upperback -1.7282 -1.86911 1.67879
thorax -6.26205 -0.737687 4.29019
lowerneck -18.0688 -0.487411 -1.88235
upperneck 21.0695 -0.269198 -1.21402
head 9.66248 -0.586032 -0.174355
rclavicle -1.68967e-015 -3.97569e-015
rhumerus -35.261 -9.56643 -78.814
rradius 33.3648
rwrist -0.152586
rhand -20.1584 -12.5655
rfingers 7.12502
rthumb 6.18685 -42.4552
lclavicle -1.68967e-015 -3.97569e-015
lhumerus -35.5862 1.85634 86.6063
lradius 36.3175
lwrist -11.4289
lhand -8.71023 10.3037
lfingers 7.12502
lthumb 17.2254 39.5603
rfemur -38.2843 -5.26588 15.4193
rtibia 45.4756
rfoot -13.1629 -3.27692
rtoes 11.273
lfemur -12.9517 -5.08218 -26.3481
ltibia 33.1975
lfoot -26.8659 0.892649
ltoes 9.09558
139
root 0.705511 16.9202 31.6092 -169.713 -5.0596 176.893
lowerback 8.37724 -1.16242 -3.98932
upperback -1.67459 -1.88116 1.693
thorax -6.28127 -0.745684 4.28263
lowerneck -18.0315 -0.51182 -1.88279
upperneck 20.8246 -0.288802 -1.21546
head 9.56943 -0.585524 -0.174785
rclavicle -1.04362e-014 1.19271e-014
rhumerus -35.2328 -9.41312 -78.9053
rradius 33.5891
rwrist -0.295965
rhand -20.1418 -12.5744
rfingers 7.12502
rthumb 6.20293 -42.4636
lclavicle -1.04362e-014 1.19271e-014
lhumerus -35.5509 1.69428 86.718
lradius 36.4938
lwrist -11.3172
lhand -8.75356 10.2925
lfingers 7.12502
lthumb 17.1837 39.5526
rfemur -38.5511 -5.33139 15.4553
rtibia 45.7877
rfoot -13.419 -3.26336
rtoes 11.1377
lfemur -13.0823 -5.16919 -26.3409
ltibia 33.2633
lfoot -27.0139 1.03667
ltoes 8.96023
140
root 0.712174 16.911 31.568 -169.487 -5.07593 176.866
lowerback 8.51748 -1.17219 -3.93728
upperback -1.61309 -1.89286 1.70602
thorax -6.29594 -0.753973 4.27205
lowerneck -18.0032 -0.537145 -1.88182
upperneck 20.5718 -0.309629 -1.21523
head 9.47555 -0.584981 -0.174996
rclavicle 2.29596e-014 -1.74931e-014
rhumerus -35.1939 -9.25607 -79.0027
rradius 33.8192
rwrist -0.442317
rhand -20.127 -12.5878
rfingers 7.12502
rthumb 6.2172 -42.4766
lclavicle 2.29596e-014 -1.74931e-014
lhumerus -35.5069 1.53004 86.8291
lradius 36.6696
lwrist -11.2086
lhand -8.79844 10.279
lfingers 7.12502
lthumb 17.1404 39.543
rfemur -38.814 -5.40043 15.4925
rtibia 46.1055
rfoot -13.6815 -3.24891
rtoes 10.9884
lfemur -13.2059 -5.26632 -26.3359
ltibia 33.3304
lfoot -27.1663 1.19622
ltoes 8.82321
141
root 0.718947 16.9014 31.5254 -169.26 -5.08731 176.84
lowerback 8.66513 -1.17951 -3.88183
upperback -1.54867 -1.90122 1.7184
thorax -6.31218 -0.760829 4.25868
lowerneck -17.9809 -0.562157 -1.87921
upperneck 20.3132 -0.330728 -1.21201
head 9.38106 -0.583951 -0.174467
rclavicle 2.10712e-014 -5.56597e-015
rhumerus -35.1537 -9.09451 -79.1028
rradius 34.0566
rwrist -0.59167
rhand -20.1106 -12.5916
rfingers 7.12502
rthumb 6.23308 -42.4799
lclavicle 2.10712e-014 -5.56597e-015
lhumerus -35.4607 1.35783 86.9414
lradius 36.8449
lwrist -11.1011
lhand -8.84825 10.2679
lfingers 7.12502
lthumb 17.0925 39.536
rfemur -39.081 -5.46665 15.5328
rtibia 46.4358
rfoot -13.9547 -3.23373
rtoes 10.831
lfemur -13.3316 -5.36922 -26.3306
ltibia 33.4079
lfoot -27.3289 1.37197
ltoes 8.6814
142
root 0.725804 16.8914 31.4814 -169.029 -5.09135 176.814
lowerback 8.81814 -1.18517 -3.82737
upperback -1.48351 -1.90763 1.73174
thorax -6.33082 -0.766685 4.24685
lowerneck -17.9518 -0.585976 -1.87653
upperneck 20.0444 -0.350716 -1.20801
head 9.28208 -0.582263 -0.17347
rclavicle -2.45499e-014 1.11319e-014
rhumerus -35.118 -8.91689 -79.2067
rradius 34.3074
rwrist -0.746425
rhand -20.0954 -12.6062
rfingers 7.12502
rthumb 6.24773 -42.4941
lclavicle -2.45499e-014 1.11319e-014
lhumerus -35.4201 1.18551 87.0553
lradius 37.0205
lwrist -10.9991
lhand -8.90206 10.2516
lfingers 7.12502
lthumb 17.0407 39.5242
rfemur -39.3499 -5.52826 15.574
rtibia 46.7717
rfoot -14.2335 -3.21762
rtoes 10.6663
lfemur -13.4539 -5.47606 -26.3271
ltibia 33.4839
lfoot -27.4951 1.56393
ltoes 8.52485
143
root 0.7329 16.8791 31.436 -168.793 -5.08631 176.79
lowerback 8.97204 -1.18968 -3.77385
upperback -1.41835 -1.91258 1.74721
thorax -6.34999 -0.771806 4.23769
lowerneck -17.9119 -0.607571 -1.87373
upperneck 19.7643 -0.368207 -1.20426
head 9.17757 -0.579423 -0.172178
rclavicle -1.2424e-014 -6.36111e-015
rhumerus -35.091 -8.72075 -79.3144
rradius 34.5759
rwrist -0.907865
rhand -20.0824 -12.6317
rfingers 7.12502
rthumb 6.26026 -42.5192
lclavicle -1.2424e-014 -6.36111e-015
lhumerus -35.3854 1.01265 87.1709
lradius 37.1963
lwrist -10.9031
lhand -8.96449 10.2407
lfingers 7.12502
lthumb 16.9806 39.5185
rfemur -39.632 -5.58598 15.6199
rtibia 47.1194
rfoot -14.515 -3.20151
rtoes 10.4737
lfemur -13.5795 -5.58362 -26.3227
ltibia 33.563
lfoot -27.6667 1.76846
ltoes 8.35443
144
root 0.739987 16.8685 31.3889 -168.551 -5.07123 176.766
lowerback 9.12727 -1.1909 -3.72205
upperback -1.35221 -1.91343 1.76218
thorax -6.36923 -0.774938 4.22847
lowerneck -17.87 -0.629169 -1.8691
upperneck 19.4748 -0.386376 -1.20029
head 9.06981 -0.576669 -0.171161
rclavicle 2.96189e-014 1.43125e-014
rhumerus -35.0624 -8.51874 -79.4243
rradius 34.8508
rwrist -1.07214
rhand -20.072 -12.662
rfingers 7.12502
rthumb 6.27035 -42.5492
lclavicle 2.96189e-014 1.43125e-014
lhumerus -35.3568 0.831704 87.2903
lradius 37.3755
lwrist -10.8107
lhand -9.03371 10.2314
lfingers 7.12502
lthumb 16.914 39.5149
rfemur -39.9127 -5.63956 15.6665
rtibia 47.4673
rfoot -14.8027 -3.18297
rtoes 10.2657
lfemur -13.7014 -5.68755 -26.32
ltibia 33.6346
lfoot -27.839 1.98285
ltoes 8.16255
